<?xml version="1.0" encoding="UTF-8"?>
<svg version="1.1" xmlns="http://www.w3.org/2000/svg" width="500" height="500">
<path d="M0 0 C1.25157857 -0.00384115 2.50315713 -0.00768229 3.79266232 -0.01163983 C5.18928355 -0.01085954 6.58590472 -0.00998075 7.98252583 -0.00901413 C9.46021757 -0.01159703 10.93790862 -0.01460998 12.41559869 -0.01801753 C16.48654423 -0.02609975 20.55747215 -0.02787778 24.62842476 -0.028615 C29.01507392 -0.03046345 33.40171388 -0.03800978 37.78835773 -0.04475021 C47.38551735 -0.05834316 56.98267279 -0.06435987 66.57984042 -0.06876087 C72.57090484 -0.07152191 78.56196764 -0.07575903 84.55303097 -0.08026505 C101.13596177 -0.09245942 117.71889128 -0.10275811 134.30182648 -0.10614014 C135.89445835 -0.10646949 135.89445835 -0.10646949 137.5192646 -0.10680549 C139.11574213 -0.10713291 139.11574213 -0.10713291 140.74447173 -0.10746694 C142.9012411 -0.1079104 145.05801048 -0.10835697 147.21477985 -0.10880661 C148.28461557 -0.10902804 149.35445128 -0.10924947 150.45670626 -0.10947761 C167.79112113 -0.11342544 185.12549396 -0.13087827 202.45989259 -0.15416613 C220.25094311 -0.1778748 238.04197253 -0.19034178 255.8330391 -0.19150805 C265.82441135 -0.19242514 275.81572882 -0.19818571 285.80708599 -0.21632767 C294.31542766 -0.23172216 302.82369764 -0.23685299 311.33205058 -0.22858956 C315.67326276 -0.22468063 320.01433057 -0.22562447 324.35552502 -0.23964691 C328.33123365 -0.25237134 332.30668921 -0.2512012 336.28239743 -0.2390562 C337.71918593 -0.23709666 339.15599227 -0.24018955 340.5927557 -0.24890056 C348.09063351 -0.29147447 354.22344091 -0.13077004 361.04656696 3.13142776 C361.04656696 3.79142776 361.04656696 4.45142776 361.04656696 5.13142776 C362.12937946 5.28611526 362.12937946 5.28611526 363.23406696 5.44392776 C368.75407321 6.79326263 372.29788144 9.95432104 376.04656696 14.13142776 C376.04656696 14.79142776 376.04656696 15.45142776 376.04656696 16.13142776 C376.70656696 16.13142776 377.36656696 16.13142776 378.04656696 16.13142776 C378.70656696 18.11142776 379.36656696 20.09142776 380.04656696 22.13142776 C380.70656696 22.13142776 381.36656696 22.13142776 382.04656696 22.13142776 C382.30051228 22.77209183 382.55445759 23.41275589 382.81609821 24.07283401 C384.37351745 27.98679773 385.94153159 31.88774569 387.60906696 35.75642776 C389.20797682 39.51039003 390.64499629 43.30046793 392.04656696 47.13142776 C392.54543415 48.48881058 392.54543415 48.48881058 393.05437946 49.87361526 C395.77800429 57.3181898 395.77800429 57.3181898 397.01922321 61.07674026 C398.07422773 64.21367384 399.22793533 67.29471158 400.42156696 70.38142776 C400.85727009 71.50935745 401.29297321 72.63728714 401.74187946 73.79939651 C403.2106485 77.55047434 404.71684531 81.28501409 406.24969196 85.01033401 C407.44145297 88.18252141 408.04656696 90.72777489 408.04656696 94.13142776 C408.70656696 94.13142776 409.36656696 94.13142776 410.04656696 94.13142776 C411.91653035 98.49467567 413.04656696 102.36728145 413.04656696 107.13142776 C413.70656696 107.13142776 414.36656696 107.13142776 415.04656696 107.13142776 C415.6956685 108.71342408 416.34071391 110.297085 416.98406696 111.88142776 C417.3437154 112.76314651 417.70336384 113.64486526 418.07391071 114.55330276 C420.6950891 121.5010045 420.37112809 127.91992829 419.04656696 135.13142776 C418.82268709 137.41420289 418.61396583 139.69701592 418.42547321 141.98299026 C418.00315792 144.37756152 417.21738556 146.00525372 416.04656696 148.13142776 C415.19114343 149.81829099 414.33703231 151.50582023 413.48406696 153.19392776 C413.0496529 154.05115433 412.61523884 154.90838089 412.16766071 155.79158401 C410.95557817 158.19649769 410.95557817 158.19649769 410.04656696 161.13142776 C409.38656696 161.13142776 408.72656696 161.13142776 408.04656696 161.13142776 C407.90219196 161.75017776 407.75781696 162.36892776 407.60906696 163.00642776 C407.04656696 165.13142776 407.04656696 165.13142776 406.04656696 167.13142776 C405.38656696 167.13142776 404.72656696 167.13142776 404.04656696 167.13142776 C404.04656696 167.79142776 404.04656696 168.45142776 404.04656696 169.13142776 C402.56952484 170.38370261 401.08829298 171.63309299 399.55437946 172.81502151 C397.77893752 174.24906867 397.77893752 174.24906867 396.04656696 177.13142776 C395.38656696 177.13142776 394.72656696 177.13142776 394.04656696 177.13142776 C393.71656696 177.79142776 393.38656696 178.45142776 393.04656696 179.13142776 C392.05656696 179.44080276 391.06656696 179.75017776 390.04656696 180.06892776 C389.05656696 180.41955276 388.06656696 180.77017776 387.04656696 181.13142776 C386.71656696 182.12142776 386.38656696 183.11142776 386.04656696 184.13142776 C384.06656696 184.46142776 382.08656696 184.79142776 380.04656696 185.13142776 C380.04656696 185.79142776 380.04656696 186.45142776 380.04656696 187.13142776 C379.44844196 187.27580276 378.85031696 187.42017776 378.23406696 187.56892776 C376.48506292 188.01867166 374.75979673 188.56035117 373.04656696 189.13142776 C372.71656696 198.37142776 372.38656696 207.61142776 372.04656696 217.13142776 C374.02656696 217.13142776 376.00656696 217.13142776 378.04656696 217.13142776 C381.31192855 219.89804699 381.98088581 221.65223083 382.56275558 225.89743996 C382.5907035 227.39547271 382.59684703 228.89400927 382.58573627 230.39226151 C382.6001632 231.63470294 382.6001632 231.63470294 382.61488158 232.90224421 C382.64219137 235.67594965 382.64109891 238.44890741 382.64007282 241.22273636 C382.65371931 243.21210291 382.66907121 245.2014584 382.68600178 247.19079971 C382.72673027 252.59371287 382.74242973 257.99643608 382.75286651 263.39948225 C382.76715811 269.05373539 382.80157979 274.70787059 382.83308125 280.3620491 C382.88279648 289.85970211 382.91638821 299.35730989 382.94036579 308.85506058 C382.96826666 319.83251349 383.02105114 330.80963086 383.08734888 341.78691423 C383.15059637 352.3475783 383.19667037 362.90824972 383.23477077 373.46903229 C383.2512551 377.96252512 383.27366282 382.45593072 383.30082226 386.94937134 C383.33200872 392.2434879 383.34812154 397.5374435 383.35266209 402.83164787 C383.3567178 404.7734741 383.3659088 406.71529749 383.38064098 408.65707207 C383.39990712 411.31044808 383.40043839 413.96319863 383.39628315 416.61662674 C383.40618414 417.38268875 383.41608514 418.14875077 383.42628616 418.93802679 C383.39095888 424.05537938 382.32924135 427.54391048 380.04656696 432.13142776 C379.71914509 432.80431839 379.39172321 433.47720901 379.05437946 434.17049026 C376.85998271 438.11263665 374.45197501 441.17409973 371.04656696 444.13142776 C370.38656696 444.13142776 369.72656696 444.13142776 369.04656696 444.13142776 C369.04656696 444.79142776 369.04656696 445.45142776 369.04656696 446.13142776 C362.39842244 450.628702 355.18627624 454.36399089 347.04656696 454.13142776 C346.71656696 454.46142776 346.38656696 454.79142776 346.04656696 455.13142776 C344.19031724 455.2299099 342.3302663 455.25698423 340.47140598 455.25726891 C338.64426197 455.26118053 338.64426197 455.26118053 336.78020597 455.26517117 C335.41100535 455.26300863 334.04180488 455.26075196 332.67260456 455.25841141 C331.23162444 455.25956226 329.79064461 455.26114955 328.3496654 455.26313865 C324.3710191 455.26733706 320.39239659 455.26523897 316.41375017 455.26215243 C312.1300585 455.25990054 307.84637108 455.26337695 303.56268024 455.26613235 C295.16231785 455.27059177 286.76196437 455.2696127 278.36160162 455.26671971 C271.53529365 455.26446575 264.70898818 455.26415313 257.88267994 455.26524353 C256.91288261 455.26539676 255.94308528 455.26555 254.94390015 455.26570787 C252.97402034 455.26602759 251.00414053 455.2663518 249.03426072 455.26668046 C230.53733082 455.26953591 212.04040587 455.26624754 193.54347679 455.2608801 C177.66397051 455.25641482 161.78447155 455.25718559 145.9049654 455.26179886 C127.48260018 455.26714834 109.0602393 455.26925824 90.63787341 455.26618659 C88.67382129 455.26586804 86.70976917 455.26555366 84.74571705 455.26524353 C83.779277 455.26508925 82.81283696 455.26493498 81.81711085 455.26477603 C74.99914784 455.26391179 68.18118757 455.26537182 61.36322498 455.26772308 C53.05385772 455.27052554 44.7444999 455.26977348 36.43513373 455.26444234 C32.19359395 455.26181094 27.95206994 455.26079077 23.71053028 455.26409149 C19.82934385 455.26706612 15.94818783 455.26544205 12.06700417 455.26011394 C10.66116736 455.25899473 9.25532799 455.25957001 7.84949282 455.26198973 C5.94136114 455.26502262 4.03322229 455.26131922 2.12509251 455.25726891 C1.06431626 455.25710655 0.00354001 455.2569442 -1.08938098 455.25677693 C-3.82537389 455.13703245 -6.28780726 454.73559688 -8.95343304 454.13142776 C-9.86093304 453.98705276 -10.76843304 453.84267776 -11.70343304 453.69392776 C-12.44593304 453.50830276 -13.18843304 453.32267776 -13.95343304 453.13142776 C-14.28343304 452.47142776 -14.61343304 451.81142776 -14.95343304 451.13142776 C-15.51030804 451.00767776 -16.06718304 450.88392776 -16.64093304 450.75642776 C-19.91935808 449.87036694 -22.25593393 448.15455209 -24.95343304 446.13142776 C-24.95343304 445.47142776 -24.95343304 444.81142776 -24.95343304 444.13142776 C-25.61343304 444.13142776 -26.27343304 444.13142776 -26.95343304 444.13142776 C-28.64483929 442.55720901 -28.64483929 442.55720901 -30.51593304 440.44392776 C-31.1359721 439.75943558 -31.75601116 439.07494339 -32.39483929 438.36970901 C-34.10490167 435.91390515 -34.57720384 434.07426166 -34.95343304 431.13142776 C-35.61343304 431.13142776 -36.27343304 431.13142776 -36.95343304 431.13142776 C-41.86017786 417.08712326 -41.27983752 402.64458483 -41.28937054 387.95564651 C-41.29580776 385.61684464 -41.30253679 383.27804356 -41.30954266 380.93924332 C-41.32146028 376.06017055 -41.32522868 371.18116834 -41.32403851 366.30208206 C-41.32383448 360.06019266 -41.35124795 353.81875424 -41.38558292 347.57697201 C-41.40783593 342.7564728 -41.41187669 337.93608296 -41.41081905 333.11553764 C-41.41317311 330.81390502 -41.42198556 328.51226929 -41.43748379 326.21068764 C-41.45713096 322.99473603 -41.45131238 319.77976906 -41.43927288 316.56380081 C-41.4561314 315.15081207 -41.4561314 315.15081207 -41.4733305 313.70927811 C-41.4166337 307.7340282 -40.42718939 303.08809251 -36.95343304 298.13142776 C-34.01593304 295.56892776 -34.01593304 295.56892776 -30.95343304 294.13142776 C-28.14093304 294.44392776 -28.14093304 294.44392776 -25.95343304 295.13142776 C-24.59724805 294.00608672 -24.59724805 294.00608672 -24.89093304 291.06892776 C-24.91155804 290.09955276 -24.93218304 289.13017776 -24.95343304 288.13142776 C-25.94343304 288.46142776 -26.93343304 288.79142776 -27.95343304 289.13142776 C-35.56746812 287.49984882 -35.56746812 287.49984882 -37.95343304 284.13142776 C-37.95343304 283.47142776 -37.95343304 282.81142776 -37.95343304 282.13142776 C-38.61343304 281.80142776 -39.27343304 281.47142776 -39.95343304 281.13142776 C-41.75072222 275.73956022 -41.21899662 269.89346554 -41.24859905 264.24544144 C-41.26008833 262.71995623 -41.28049186 261.19451025 -41.31012249 259.66926956 C-41.62522226 243.44075135 -41.62522226 243.44075135 -36.95343304 237.13142776 C-34.62921429 235.72908401 -34.62921429 235.72908401 -32.26593304 235.19392776 C-31.47831585 234.99927933 -30.69069866 234.80463089 -29.87921429 234.60408401 C-28.92595257 234.37011917 -28.92595257 234.37011917 -27.95343304 234.13142776 C-26.65709683 233.06497662 -26.65709683 233.06497662 -26.89093304 230.56892776 C-26.91155804 229.76455276 -26.93218304 228.96017776 -26.95343304 228.13142776 C-27.61343304 228.46142776 -28.27343304 228.79142776 -28.95343304 229.13142776 C-30.86358929 228.71345901 -30.86358929 228.71345901 -33.01593304 227.94392776 C-33.7287846 227.70287308 -34.44163616 227.46181839 -35.17608929 227.21345901 C-36.95343304 226.13142776 -36.95343304 226.13142776 -37.57452679 224.08064651 C-37.69956585 223.43740433 -37.82460491 222.79416214 -37.95343304 222.13142776 C-38.61343304 221.80142776 -39.27343304 221.47142776 -39.95343304 221.13142776 C-41.14319099 217.56215391 -41.07821458 214.33195805 -41.05108929 210.61970901 C-41.04967434 209.89148438 -41.04825939 209.16325974 -41.04680157 208.41296768 C-41.04120962 206.08991238 -41.02865866 203.76695388 -41.01593304 201.44392776 C-41.01091699 199.86775728 -41.00635427 198.29158529 -41.00226116 196.71541214 C-40.99124284 192.85404678 -40.97398378 188.99275368 -40.95343304 185.13142776 C-41.90218304 185.00767776 -42.85093304 184.88392776 -43.82843304 184.75642776 C-46.95343304 184.13142776 -46.95343304 184.13142776 -48.95343304 182.13142776 C-49.44843304 181.14142776 -49.44843304 181.14142776 -49.95343304 180.13142776 C-52.48076539 179.47587657 -52.48076539 179.47587657 -54.95343304 179.13142776 C-54.95343304 178.47142776 -54.95343304 177.81142776 -54.95343304 177.13142776 C-55.61343304 177.13142776 -56.27343304 177.13142776 -56.95343304 177.13142776 C-56.95343304 176.47142776 -56.95343304 175.81142776 -56.95343304 175.13142776 C-58.27343304 174.47142776 -59.59343304 173.81142776 -60.95343304 173.13142776 C-60.95343304 172.47142776 -60.95343304 171.81142776 -60.95343304 171.13142776 C-61.61343304 171.13142776 -62.27343304 171.13142776 -62.95343304 171.13142776 C-67.20239535 167.13740319 -70.39977829 162.33695474 -72.95343304 157.13142776 C-72.95343304 155.81142776 -72.95343304 154.49142776 -72.95343304 153.13142776 C-73.61343304 152.80142776 -74.27343304 152.47142776 -74.95343304 152.13142776 C-75.95343304 149.56892776 -75.95343304 149.56892776 -76.95343304 146.13142776 C-77.30405804 144.95580276 -77.65468304 143.78017776 -78.01593304 142.56892776 C-80.40959872 132.39098343 -80.59414578 124.55161211 -75.95343304 115.13142776 C-75.27101739 113.5129784 -74.60441549 111.88777423 -73.95343304 110.25642776 C-73.62601116 109.44560745 -73.29858929 108.63478714 -72.96124554 107.79939651 C-71.43340928 103.75477574 -70.1565786 99.63336688 -68.88312054 95.50252151 C-67.95343304 93.13142776 -67.95343304 93.13142776 -65.95343304 92.13142776 C-65.48820241 90.23609435 -65.48820241 90.23609435 -65.32843304 88.06892776 C-65.20468304 86.76955276 -65.08093304 85.47017776 -64.95343304 84.13142776 C-64.29343304 84.13142776 -63.63343304 84.13142776 -62.95343304 84.13142776 C-62.78907757 83.31351761 -62.78907757 83.31351761 -62.62140179 82.47908401 C-61.44333367 76.87607711 -59.86639804 71.52598906 -57.95343304 66.13142776 C-57.29343304 66.13142776 -56.63343304 66.13142776 -55.95343304 66.13142776 C-55.82968304 64.91455276 -55.70593304 63.69767776 -55.57843304 62.44392776 C-55.23091859 59.02670233 -54.30324054 56.2874525 -52.95343304 53.13142776 C-52.28585907 51.48596224 -51.61919466 49.84012741 -50.95343304 48.19392776 C-50.62343304 47.38052933 -50.29343304 46.56713089 -49.95343304 45.72908401 C-49.25039141 43.90282353 -48.60687273 42.05308102 -48.00812054 40.19002151 C-42.69003095 24.76756172 -33.2207411 13.11432632 -18.95343304 5.13142776 C-17.63343304 5.13142776 -16.31343304 5.13142776 -14.95343304 5.13142776 C-14.95343304 4.47142776 -14.95343304 3.81142776 -14.95343304 3.13142776 C-9.73174158 1.39086395 -5.52726096 0.0063495 0 0 Z " fill="#F8F4F1" transform="translate(79.9534330368042,14.868572235107422)"/>
<path d="M0 0 C1.25157857 -0.00384115 2.50315713 -0.00768229 3.79266232 -0.01163983 C5.18928355 -0.01085954 6.58590472 -0.00998075 7.98252583 -0.00901413 C9.46021757 -0.01159703 10.93790862 -0.01460998 12.41559869 -0.01801753 C16.48654423 -0.02609975 20.55747215 -0.02787778 24.62842476 -0.028615 C29.01507392 -0.03046345 33.40171388 -0.03800978 37.78835773 -0.04475021 C47.38551735 -0.05834316 56.98267279 -0.06435987 66.57984042 -0.06876087 C72.57090484 -0.07152191 78.56196764 -0.07575903 84.55303097 -0.08026505 C101.13596177 -0.09245942 117.71889128 -0.10275811 134.30182648 -0.10614014 C135.89445835 -0.10646949 135.89445835 -0.10646949 137.5192646 -0.10680549 C139.11574213 -0.10713291 139.11574213 -0.10713291 140.74447173 -0.10746694 C142.9012411 -0.1079104 145.05801048 -0.10835697 147.21477985 -0.10880661 C148.28461557 -0.10902804 149.35445128 -0.10924947 150.45670626 -0.10947761 C167.79112113 -0.11342544 185.12549396 -0.13087827 202.45989259 -0.15416613 C220.25094311 -0.1778748 238.04197253 -0.19034178 255.8330391 -0.19150805 C265.82441135 -0.19242514 275.81572882 -0.19818571 285.80708599 -0.21632767 C294.31542766 -0.23172216 302.82369764 -0.23685299 311.33205058 -0.22858956 C315.67326276 -0.22468063 320.01433057 -0.22562447 324.35552502 -0.23964691 C328.33123365 -0.25237134 332.30668921 -0.2512012 336.28239743 -0.2390562 C337.71918593 -0.23709666 339.15599227 -0.24018955 340.5927557 -0.24890056 C348.09063351 -0.29147447 354.22344091 -0.13077004 361.04656696 3.13142776 C361.04656696 3.79142776 361.04656696 4.45142776 361.04656696 5.13142776 C362.12937946 5.28611526 362.12937946 5.28611526 363.23406696 5.44392776 C368.75407321 6.79326263 372.29788144 9.95432104 376.04656696 14.13142776 C376.04656696 14.79142776 376.04656696 15.45142776 376.04656696 16.13142776 C376.70656696 16.13142776 377.36656696 16.13142776 378.04656696 16.13142776 C378.70656696 18.11142776 379.36656696 20.09142776 380.04656696 22.13142776 C380.70656696 22.13142776 381.36656696 22.13142776 382.04656696 22.13142776 C382.30051228 22.77209183 382.55445759 23.41275589 382.81609821 24.07283401 C384.37351745 27.98679773 385.94153159 31.88774569 387.60906696 35.75642776 C389.20797682 39.51039003 390.64499629 43.30046793 392.04656696 47.13142776 C392.54543415 48.48881058 392.54543415 48.48881058 393.05437946 49.87361526 C395.77800429 57.3181898 395.77800429 57.3181898 397.01922321 61.07674026 C398.07422773 64.21367384 399.22793533 67.29471158 400.42156696 70.38142776 C400.85727009 71.50935745 401.29297321 72.63728714 401.74187946 73.79939651 C403.2106485 77.55047434 404.71684531 81.28501409 406.24969196 85.01033401 C407.44145297 88.18252141 408.04656696 90.72777489 408.04656696 94.13142776 C408.70656696 94.13142776 409.36656696 94.13142776 410.04656696 94.13142776 C411.91653035 98.49467567 413.04656696 102.36728145 413.04656696 107.13142776 C413.70656696 107.13142776 414.36656696 107.13142776 415.04656696 107.13142776 C415.6956685 108.71342408 416.34071391 110.297085 416.98406696 111.88142776 C417.3437154 112.76314651 417.70336384 113.64486526 418.07391071 114.55330276 C420.6950891 121.5010045 420.37112809 127.91992829 419.04656696 135.13142776 C418.82268709 137.41420289 418.61396583 139.69701592 418.42547321 141.98299026 C418.00315792 144.37756152 417.21738556 146.00525372 416.04656696 148.13142776 C415.19114343 149.81829099 414.33703231 151.50582023 413.48406696 153.19392776 C413.0496529 154.05115433 412.61523884 154.90838089 412.16766071 155.79158401 C410.95557817 158.19649769 410.95557817 158.19649769 410.04656696 161.13142776 C409.38656696 161.13142776 408.72656696 161.13142776 408.04656696 161.13142776 C407.90219196 161.75017776 407.75781696 162.36892776 407.60906696 163.00642776 C407.04656696 165.13142776 407.04656696 165.13142776 406.04656696 167.13142776 C405.38656696 167.13142776 404.72656696 167.13142776 404.04656696 167.13142776 C404.04656696 167.79142776 404.04656696 168.45142776 404.04656696 169.13142776 C402.56952484 170.38370261 401.08829298 171.63309299 399.55437946 172.81502151 C397.77893752 174.24906867 397.77893752 174.24906867 396.04656696 177.13142776 C395.38656696 177.13142776 394.72656696 177.13142776 394.04656696 177.13142776 C393.71656696 177.79142776 393.38656696 178.45142776 393.04656696 179.13142776 C392.05656696 179.44080276 391.06656696 179.75017776 390.04656696 180.06892776 C389.05656696 180.41955276 388.06656696 180.77017776 387.04656696 181.13142776 C386.71656696 182.12142776 386.38656696 183.11142776 386.04656696 184.13142776 C384.06656696 184.46142776 382.08656696 184.79142776 380.04656696 185.13142776 C380.04656696 185.79142776 380.04656696 186.45142776 380.04656696 187.13142776 C379.4780904 187.18041214 378.90961384 187.22939651 378.32391071 187.27986526 C377.16568806 187.3920137 377.16568806 187.3920137 375.98406696 187.50642776 C374.85291462 187.61084183 374.85291462 187.61084183 373.69891071 187.71736526 C370.93153571 188.07735857 370.93153571 188.07735857 367.92547321 189.14705276 C350.66048122 194.246221 330.67309545 189.23701501 315.33172321 181.10799026 C307.04112667 176.11983111 294.41747171 167.45627559 291.30437946 157.83845901 C291.17676228 156.99347855 291.17676228 156.99347855 291.04656696 156.13142776 C290.38656696 156.13142776 289.72656696 156.13142776 289.04656696 156.13142776 C288.67531696 157.22004105 288.67531696 157.22004105 288.29656696 158.33064651 C282.65335076 170.97497782 268.28764338 179.92278793 256.04656696 185.13142776 C238.18640598 191.91568795 218.70775518 192.58882618 200.85906696 185.38142776 C195.28028714 182.86217463 190.64090648 180.15031466 186.04656696 176.13142776 C185.21254353 175.4392012 184.37852009 174.74697464 183.51922321 174.03377151 C178.21570871 169.49346467 174.39141024 165.26364043 171.04656696 159.13142776 C170.18418415 160.21810745 170.18418415 160.21810745 169.30437946 161.32674026 C157.90754502 175.48405364 144.09233894 186.35319169 125.78875446 189.73299026 C104.7310071 191.97504687 84.06058837 188.48202549 67.04656696 175.13142776 C60.93035991 169.72547763 55.40310173 164.06274667 51.04656696 157.13142776 C50.51289509 157.8210762 49.97922321 158.51072464 49.42937946 159.22127151 C35.67599288 176.56767085 19.27218555 187.4244614 -2.95343304 190.13142776 C-5.913621 190.23822781 -8.86685971 190.22655527 -11.82843304 190.19392776 C-12.61218304 190.18941605 -13.39593304 190.18490433 -14.20343304 190.18025589 C-16.12013318 190.16856869 -18.03679352 190.15063685 -19.95343304 190.13142776 C-19.93772259 191.01403275 -19.92201214 191.89663773 -19.90582561 192.80598831 C-19.85455306 196.09543662 -19.81701386 199.38445737 -19.78863811 202.67415237 C-19.77359544 204.09511918 -19.753156 205.51603989 -19.72711468 206.93684769 C-19.69052957 208.98489662 -19.67366207 211.03232927 -19.66046429 213.08064651 C-19.64475384 214.31129837 -19.62904339 215.54195023 -19.61285686 216.80989456 C-20.12661197 221.82038793 -22.01338072 224.2569605 -25.64093304 227.63142776 C-29.21340657 229.24915163 -29.74850855 229.29129534 -33.26593304 228.13142776 C-35.31671429 227.31892776 -35.31671429 227.31892776 -36.95343304 226.13142776 C-37.55890179 224.06892776 -37.55890179 224.06892776 -37.95343304 222.13142776 C-38.61343304 221.80142776 -39.27343304 221.47142776 -39.95343304 221.13142776 C-41.14319099 217.56215391 -41.07821458 214.33195805 -41.05108929 210.61970901 C-41.04967434 209.89148438 -41.04825939 209.16325974 -41.04680157 208.41296768 C-41.04120962 206.08991238 -41.02865866 203.76695388 -41.01593304 201.44392776 C-41.01091699 199.86775728 -41.00635427 198.29158529 -41.00226116 196.71541214 C-40.99124284 192.85404678 -40.97398378 188.99275368 -40.95343304 185.13142776 C-41.90218304 185.00767776 -42.85093304 184.88392776 -43.82843304 184.75642776 C-46.95343304 184.13142776 -46.95343304 184.13142776 -48.95343304 182.13142776 C-49.44843304 181.14142776 -49.44843304 181.14142776 -49.95343304 180.13142776 C-52.48076539 179.47587657 -52.48076539 179.47587657 -54.95343304 179.13142776 C-54.95343304 178.47142776 -54.95343304 177.81142776 -54.95343304 177.13142776 C-55.61343304 177.13142776 -56.27343304 177.13142776 -56.95343304 177.13142776 C-56.95343304 176.47142776 -56.95343304 175.81142776 -56.95343304 175.13142776 C-58.27343304 174.47142776 -59.59343304 173.81142776 -60.95343304 173.13142776 C-60.95343304 172.47142776 -60.95343304 171.81142776 -60.95343304 171.13142776 C-61.61343304 171.13142776 -62.27343304 171.13142776 -62.95343304 171.13142776 C-67.20239535 167.13740319 -70.39977829 162.33695474 -72.95343304 157.13142776 C-72.95343304 155.81142776 -72.95343304 154.49142776 -72.95343304 153.13142776 C-73.61343304 152.80142776 -74.27343304 152.47142776 -74.95343304 152.13142776 C-75.95343304 149.56892776 -75.95343304 149.56892776 -76.95343304 146.13142776 C-77.30405804 144.95580276 -77.65468304 143.78017776 -78.01593304 142.56892776 C-80.40959872 132.39098343 -80.59414578 124.55161211 -75.95343304 115.13142776 C-75.27101739 113.5129784 -74.60441549 111.88777423 -73.95343304 110.25642776 C-73.62601116 109.44560745 -73.29858929 108.63478714 -72.96124554 107.79939651 C-71.43340928 103.75477574 -70.1565786 99.63336688 -68.88312054 95.50252151 C-67.95343304 93.13142776 -67.95343304 93.13142776 -65.95343304 92.13142776 C-65.48820241 90.23609435 -65.48820241 90.23609435 -65.32843304 88.06892776 C-65.20468304 86.76955276 -65.08093304 85.47017776 -64.95343304 84.13142776 C-64.29343304 84.13142776 -63.63343304 84.13142776 -62.95343304 84.13142776 C-62.78907757 83.31351761 -62.78907757 83.31351761 -62.62140179 82.47908401 C-61.44333367 76.87607711 -59.86639804 71.52598906 -57.95343304 66.13142776 C-57.29343304 66.13142776 -56.63343304 66.13142776 -55.95343304 66.13142776 C-55.82968304 64.91455276 -55.70593304 63.69767776 -55.57843304 62.44392776 C-55.23091859 59.02670233 -54.30324054 56.2874525 -52.95343304 53.13142776 C-52.28585907 51.48596224 -51.61919466 49.84012741 -50.95343304 48.19392776 C-50.62343304 47.38052933 -50.29343304 46.56713089 -49.95343304 45.72908401 C-49.25039141 43.90282353 -48.60687273 42.05308102 -48.00812054 40.19002151 C-42.69003095 24.76756172 -33.2207411 13.11432632 -18.95343304 5.13142776 C-17.63343304 5.13142776 -16.31343304 5.13142776 -14.95343304 5.13142776 C-14.95343304 4.47142776 -14.95343304 3.81142776 -14.95343304 3.13142776 C-9.73174158 1.39086395 -5.52726096 0.0063495 0 0 Z " fill="#4F6394" transform="translate(79.9534330368042,14.868572235107422)"/>
<path d="M0 0 C0.94650421 -0.00817749 1.89300842 -0.01635498 2.86819458 -0.02478027 C6.01010501 -0.0496548 9.15197017 -0.06615598 12.29394531 -0.08056641 C13.9017474 -0.08855192 13.9017474 -0.08855192 15.54203033 -0.09669876 C21.21583848 -0.12343986 26.88962454 -0.14281132 32.56347656 -0.15722656 C38.42593149 -0.17387261 44.28782406 -0.21864775 50.15006638 -0.26959801 C54.65566661 -0.30324571 59.161133 -0.31480135 63.66684723 -0.32045364 C65.8278152 -0.32717342 67.98877414 -0.34241421 70.14962006 -0.36634445 C73.17573413 -0.3979436 76.20032693 -0.39804029 79.2265625 -0.390625 C80.11822113 -0.40703033 81.00987976 -0.42343567 81.92855835 -0.44033813 C86.17801291 -0.39774613 89.01361274 -0.14517558 92.41241455 2.5418396 C95.8856329 6.28529483 95.99729185 8.88500216 96.00337219 13.80369568 C96.00738037 14.97160645 96.01138855 16.13951721 96.01551819 17.34281921 C96.01498947 18.62550186 96.01446075 19.90818451 96.01391602 21.22973633 C96.01694784 22.59313062 96.02046935 23.9565239 96.02444458 25.31991577 C96.03233143 28.25662282 96.03747765 31.19331774 96.04073524 34.13003349 C96.04664497 38.77309259 96.0631843 43.41607504 96.08207703 48.05909729 C96.08841428 49.64848609 96.09473991 51.23787494 96.10105419 52.82726383 C96.10422 53.6231923 96.10738581 54.41912077 96.11064756 55.23916829 C96.15273468 66.04899908 96.18571006 76.85879387 96.19799805 87.66870117 C96.20637172 94.96021161 96.22883492 102.25153199 96.26735371 109.54294735 C96.28713511 113.40184611 96.29951209 117.26046065 96.29451942 121.11941338 C96.2898814 124.74833154 96.303631 128.37671045 96.33153152 132.00551987 C96.34176114 133.97278733 96.33217742 135.94012649 96.32203674 137.90739441 C96.33450439 139.078125 96.34697205 140.24885559 96.3598175 141.45506287 C96.36220586 142.47251304 96.36459421 143.48996321 96.36705494 144.5382452 C97.00601164 147.89693704 98.23734126 149.08483262 100.87207031 151.19287109 C102.84942108 151.81509403 102.84942108 151.81509403 104.87207031 151.69287109 C105.53207031 151.70318359 106.19207031 151.71349609 106.87207031 151.72412109 C109.79903766 150.94664539 110.96648695 149.51728241 112.87207031 147.19287109 C113.47487138 144.4749894 113.47487138 144.4749894 113.39105225 141.43487549 C113.40496506 140.25980942 113.41887787 139.08474335 113.43321228 137.87406921 C113.42566673 135.94601189 113.42566673 135.94601189 113.41796875 133.97900391 C113.42670474 132.60896124 113.43719062 131.23892879 113.44929504 129.86891174 C113.4771732 126.15224392 113.48055935 122.4359087 113.47957516 118.7191515 C113.48270274 114.83399301 113.50831765 110.94898468 113.53155518 107.06390381 C113.57213074 99.70814261 113.59245949 92.3524701 113.60552907 84.99661422 C113.62139389 76.62175236 113.65980728 68.24704154 113.70012236 59.87226725 C113.78254255 42.64584691 113.83662136 25.41945079 113.87207031 8.19287109 C114.20207031 8.19287109 114.53207031 8.19287109 114.87207031 8.19287109 C114.87207031 52.74287109 114.87207031 97.29287109 114.87207031 143.19287109 C127.40046875 143.14646484 139.92886719 143.10005859 152.83691406 143.05224609 C160.77116215 143.03180938 168.70539117 143.0123881 176.63964844 142.99755859 C189.2348482 142.97382847 201.8299409 142.94593866 214.42504883 142.89111328 C223.59820228 142.85120245 232.77126883 142.82542804 241.9445067 142.81651711 C246.80018503 142.81130957 251.65561477 142.79909924 256.5112133 142.76995087 C261.08551726 142.7427147 265.65947122 142.73444264 270.23384857 142.74044037 C271.90875974 142.73934379 273.58368312 142.73143883 275.25852394 142.71604919 C283.95657246 142.64007442 291.10898439 142.73327372 298.87207031 147.19287109 C299.0082295 150.19442483 299.10671012 153.18969209 299.18457031 156.19287109 C299.22646484 157.03205078 299.26835937 157.87123047 299.31152344 158.73583984 C299.43412309 165.06198179 298.06520738 169.37328945 293.87207031 174.19287109 C286.27067185 180.15759414 278.14567559 180.48079961 268.91323853 180.43338013 C267.69938048 180.43508898 266.48552243 180.43679783 265.23488081 180.43855846 C261.87348379 180.44128026 258.51232036 180.43504075 255.15095162 180.42500234 C251.52321143 180.41635722 247.89547831 180.41928875 244.26773071 180.42080688 C237.9850354 180.42185506 231.70238166 180.41558546 225.41969681 180.40433121 C216.33601983 180.3880701 207.25236292 180.38286757 198.16867296 180.38035522 C183.43063386 180.37597908 168.69261692 180.36267217 153.95458984 180.34375 C139.63883576 180.32538911 125.3230877 180.31123363 111.00732422 180.30273438 C110.12474987 180.30220893 109.24217552 180.30168348 108.33285649 180.30114211 C103.90519524 180.29853202 99.47753395 180.29600461 95.04987264 180.2935183 C58.32392289 180.27278832 21.59799833 180.23756498 -15.12792969 180.19287109 C-15.22133596 157.59248255 -15.29189075 134.99212579 -15.33517838 112.39158344 C-15.35581105 101.89795292 -15.38394517 91.40444226 -15.4296875 80.91088867 C-15.46953362 71.76560757 -15.49535737 62.62041327 -15.50428367 53.47504777 C-15.50950218 48.6317932 -15.52178227 43.78878699 -15.55084991 38.94561195 C-15.57798384 34.3877356 -15.58637878 29.83021011 -15.58036041 25.27226067 C-15.58146156 23.59889444 -15.58942758 21.92551658 -15.60475159 20.25222015 C-15.62464859 17.96766737 -15.61987096 15.6844399 -15.60894775 13.39985657 C-15.61263493 12.1213297 -15.6163221 10.84280283 -15.620121 9.52553272 C-15.04210403 5.61173959 -13.88592212 3.97341134 -11.12792969 1.19287109 C-7.70235405 -0.51991672 -3.77089236 0.01785352 0 0 Z " fill="#FBF5F5" transform="translate(144.1279296875,269.80712890625)"/>
<path d="M0 0 C0.5000953 2.94627285 0.69237255 5.3179736 0.65942383 8.26083374 C0.6698962 9.08912803 0.68036858 9.91742233 0.69115829 10.77081645 C0.72011603 13.54468391 0.71352409 16.31731441 0.70703125 19.09130859 C0.72039566 21.0806782 0.73590599 23.07003439 0.75340271 25.05937195 C0.79441881 30.46233628 0.80423229 35.86495188 0.80769348 41.26805449 C0.8157332 46.92232093 0.84956775 52.57643863 0.87988281 58.23062134 C0.92684148 67.72829145 0.95414825 77.22586163 0.96923828 86.72363281 C0.98686161 97.70110573 1.03260685 108.67817772 1.09413052 119.65548646 C1.15290188 130.21615728 1.19441078 140.77682285 1.22714233 151.33760452 C1.24121171 155.83108996 1.26083069 160.32450051 1.28482056 164.81794357 C1.31210989 170.11207178 1.32411847 175.40602373 1.3243885 180.70022011 C1.3268483 182.64204194 1.33442795 184.58386513 1.34753227 186.5256443 C1.36455268 189.17903222 1.36285232 191.83177878 1.35644531 194.48519897 C1.37027362 195.634292 1.37027362 195.634292 1.38438129 196.80659902 C1.34467105 201.92234169 0.28147058 205.41364962 -2 210 C-2.32742188 210.67289063 -2.65484375 211.34578125 -2.9921875 212.0390625 C-5.18658425 215.98120888 -7.59459195 219.04267196 -11 222 C-11.66 222 -12.32 222 -13 222 C-13 222.66 -13 223.32 -13 224 C-19.64814453 228.49727424 -26.86029072 232.23256312 -35 232 C-35.33 232.33 -35.66 232.66 -36 233 C-37.85624972 233.09848214 -39.71630066 233.12555647 -41.57516098 233.12584114 C-42.79325699 233.12844889 -44.01135299 233.13105664 -45.266361 233.13374341 C-46.63556161 233.13158087 -48.00476208 233.12932419 -49.3739624 233.12698364 C-50.81494252 233.1281345 -52.25592235 233.12972178 -53.69690156 233.13171089 C-57.67554786 233.1359093 -61.65417037 233.13381121 -65.63281679 233.13072467 C-69.91650846 233.12847277 -74.20019588 233.13194918 -78.48388672 233.13470459 C-86.88424911 233.139164 -95.28460259 233.13818493 -103.68496534 233.13529195 C-110.51127332 233.13303798 -117.33757879 233.13272537 -124.16388702 233.13381577 C-125.13368435 233.133969 -126.10348168 233.13412223 -127.10266681 233.13428011 C-129.07254662 233.13459982 -131.04242643 233.13492403 -133.01230624 233.1352527 C-151.50923614 233.13810815 -170.00616109 233.13481977 -188.50309017 233.12945233 C-204.38259645 233.12498705 -220.26209542 233.12575782 -236.14160156 233.13037109 C-254.56396678 233.13572057 -272.98632766 233.13783047 -291.40869355 233.13475883 C-293.37274567 233.13444027 -295.33679779 233.1341259 -297.30084991 233.13381577 C-298.26728996 233.13366149 -299.23373 233.13350721 -300.22945611 233.13334826 C-307.04741913 233.13248402 -313.86537939 233.13394406 -320.68334198 233.13629532 C-328.99270924 233.13909778 -337.30206706 233.13834571 -345.61143324 233.13301457 C-349.85297301 233.13038318 -354.09449702 233.129363 -358.33603668 233.13266373 C-362.21722311 233.13563836 -366.09837913 233.13401428 -369.97956279 233.12868617 C-371.3853996 233.12756696 -372.79123897 233.12814224 -374.19707415 233.13056196 C-376.10520582 233.13359486 -378.01334467 233.12989145 -379.92147446 233.12584114 C-380.98225071 233.12567879 -382.04302696 233.12551644 -383.13594794 233.12534916 C-385.87194085 233.00560468 -388.33437422 232.60416911 -391 232 C-391.9075 231.855625 -392.815 231.71125 -393.75 231.5625 C-394.4925 231.376875 -395.235 231.19125 -396 231 C-396.495 230.01 -396.495 230.01 -397 229 C-397.8353125 228.814375 -397.8353125 228.814375 -398.6875 228.625 C-401.96592505 227.73893918 -404.3025009 226.02312433 -407 224 C-407 223.34 -407 222.68 -407 222 C-407.66 222 -408.32 222 -409 222 C-410.69140625 220.42578125 -410.69140625 220.42578125 -412.5625 218.3125 C-413.18253906 217.62800781 -413.80257812 216.94351563 -414.44140625 216.23828125 C-416.15146863 213.78247738 -416.6237708 211.94283389 -417 209 C-417.66 209 -418.32 209 -419 209 C-423.90674482 194.95569549 -423.32640449 180.51315706 -423.3359375 165.82421875 C-423.34237472 163.48541688 -423.34910375 161.14661579 -423.35610962 158.80781555 C-423.36802725 153.92874278 -423.37179564 149.04974057 -423.37060547 144.1706543 C-423.37040144 137.92876489 -423.39781492 131.68732647 -423.43214989 125.44554424 C-423.4544029 120.62504503 -423.45844365 115.80465519 -423.45738602 110.98410988 C-423.45974007 108.68247725 -423.46855252 106.38084152 -423.48405075 104.07925987 C-423.50369793 100.86330826 -423.49787935 97.6483413 -423.48583984 94.43237305 C-423.49707886 93.49038055 -423.50831787 92.54838806 -423.51989746 91.57785034 C-423.46197898 85.47384697 -422.55816002 79.55816002 -418 75 C-408.36066049 74.02809965 -408.36066049 74.02809965 -404.375 76.875 C-402.3075481 80.07015293 -401.87613012 81.79772776 -401.88215637 85.57702637 C-401.88103851 86.54136597 -401.87992065 87.50570557 -401.87876892 88.49926758 C-401.88243973 89.56105225 -401.88611053 90.62283691 -401.88989258 91.71679688 C-401.88934969 94.02990724 -401.88876267 96.34301759 -401.88813782 98.65612793 C-401.88956598 99.88782211 -401.89099415 101.1195163 -401.89246559 102.38853455 C-401.89561392 108.22627636 -401.87453479 114.06391376 -401.85594499 119.90161991 C-401.82783192 128.86611115 -401.80761482 137.83039135 -401.82495117 146.79492188 C-401.83779064 153.48887172 -401.81916816 160.18210161 -401.78250694 166.87599182 C-401.77390201 169.42434858 -401.77595567 171.97276506 -401.789011 174.52110291 C-401.80595587 178.09743856 -401.78564599 181.6718244 -401.75708008 185.24804688 C-401.77087204 186.2936377 -401.784664 187.33922852 -401.7988739 188.41650391 C-401.68406251 195.86260407 -400.0157363 201.36396652 -395 207 C-387.31110468 213.48181519 -377.37077177 212.77881981 -367.875 212.8125 C-366.33069451 212.83568728 -364.78642024 212.86106128 -363.2421875 212.88867188 C-359.49481534 212.95098003 -355.74788823 212.98374364 -352 213 C-352.00276538 212.10547119 -352.00553076 211.21094238 -352.00837994 210.28930664 C-352.07466042 188.51389099 -352.12429066 166.73849276 -352.15543652 144.96299744 C-352.17089912 134.43248876 -352.1919771 123.90204746 -352.22631836 113.37158203 C-352.25623922 104.1922126 -352.27557941 95.01289196 -352.28226548 85.83347511 C-352.28617317 80.97396426 -352.29534426 76.11459302 -352.31719017 71.25512695 C-352.33759772 66.67840414 -352.34382516 62.10187805 -352.33932304 57.52511406 C-352.34014633 55.84817879 -352.34608652 54.17123673 -352.35761642 52.4943409 C-352.42905727 41.56522453 -352.0492317 33.00735161 -345 24 C-338.95518069 17.96992415 -332.42990665 13.9209576 -323.72741699 13.83937073 C-322.88101654 13.8293251 -322.03461609 13.81927948 -321.16256714 13.80892944 C-320.24202545 13.80309845 -319.32148376 13.79726746 -318.37304688 13.79125977 C-317.39687408 13.78147598 -316.42070129 13.7716922 -315.41494751 13.76161194 C-312.18289544 13.73169052 -308.95088482 13.71027704 -305.71875 13.69140625 C-304.61207474 13.68483442 -303.50539948 13.6782626 -302.3651886 13.67149162 C-296.50291217 13.63890641 -290.64065381 13.61445785 -284.77832031 13.5949707 C-279.94015849 13.57718872 -275.10258288 13.54241605 -270.26464844 13.49243164 C-264.41146316 13.43203502 -258.55881956 13.40146761 -252.70533752 13.39179802 C-250.48232215 13.3832727 -248.2593201 13.36452753 -246.03648376 13.3350544 C-221.80472102 13.03115654 -221.80472102 13.03115654 -211.76501465 21.99562073 C-204.66843582 29.05090042 -203.66193848 37.47835199 -203.57119751 47.13920593 C-203.57412811 48.43614883 -203.57705872 49.73309174 -203.58007812 51.06933594 C-203.572726 52.47140677 -203.56413647 53.87347157 -203.55441284 55.27552795 C-203.53232088 59.05832222 -203.5292595 62.84089792 -203.53116035 66.62374783 C-203.5312805 69.78757046 -203.52269942 72.9513475 -203.51438284 76.11515737 C-203.49519743 83.57696567 -203.49224895 91.03866209 -203.49902344 98.50048828 C-203.5056781 106.19256033 -203.48273193 113.88415455 -203.44570971 121.57612967 C-203.41502483 128.19207383 -203.40365081 134.80786405 -203.40754652 141.42387795 C-203.40961334 145.37053886 -203.40414382 149.3168268 -203.37965393 153.2634201 C-203.3574057 156.9704376 -203.35924741 160.67667466 -203.37958145 164.3836956 C-203.3846197 166.39012745 -203.36496454 168.39657376 -203.34457397 170.40290833 C-203.43633617 180.20303615 -203.43633617 180.20303615 -206.4095459 183.30548096 C-208.88565486 184.92520229 -210.08446942 185.68378086 -213 185.625 C-213.639375 185.63789063 -214.27875 185.65078125 -214.9375 185.6640625 C-218.28030019 184.58778214 -220.2875234 183.01096459 -222 180 C-222.76168608 175.59256345 -222.65854486 171.21475816 -222.61181641 166.75195312 C-222.61535925 165.38988008 -222.62113875 164.02781129 -222.62898254 162.66575623 C-222.64114741 159.73761834 -222.63771182 156.81006338 -222.62215042 153.88194275 C-222.59781484 149.25092165 -222.60933582 144.62041008 -222.62582397 139.98937988 C-222.65030713 131.83051452 -222.64452164 123.67188134 -222.63201904 115.51300049 C-222.61342943 103.22953198 -222.61828941 90.94610755 -222.65205324 78.66267157 C-222.66356237 74.06015776 -222.65913527 69.45801523 -222.64203286 64.85552216 C-222.63413056 61.99160201 -222.63838917 59.12778976 -222.64574242 56.26387215 C-222.64693782 54.30512126 -222.63310438 52.34637922 -222.61882019 50.38768005 C-222.62413254 49.21846512 -222.62944489 48.04925018 -222.63491821 46.84460449 C-222.63303308 45.83067375 -222.63114796 44.81674301 -222.6292057 43.7720871 C-223.06744876 40.49574784 -224.04812908 38.64955441 -226 36 C-229.0393611 33.97375927 -229.63552856 33.74808696 -233.0475769 33.72584534 C-233.86906219 33.71587021 -234.69054749 33.70589508 -235.53692627 33.69561768 C-236.43465759 33.694953 -237.33238892 33.69428833 -238.25732422 33.69360352 C-239.20558075 33.68528 -240.15383728 33.67695648 -241.13082886 33.66838074 C-244.27215658 33.64424352 -247.41327682 33.63550415 -250.5546875 33.62890625 C-252.73560652 33.61994294 -254.9165249 33.61082116 -257.09744263 33.60154724 C-261.67223608 33.58504469 -266.24695624 33.57735478 -270.82177734 33.57446289 C-276.68545899 33.56907703 -282.54845241 33.53139343 -288.41193962 33.48571873 C-292.91751627 33.45598494 -297.42292644 33.44874013 -301.92859268 33.44773674 C-304.09037555 33.44352734 -306.2521586 33.43106439 -308.41384506 33.41021919 C-311.43770795 33.38338106 -314.45996578 33.38810802 -317.48388672 33.40063477 C-318.82441101 33.37838333 -318.82441101 33.37838333 -320.1920166 33.35568237 C-321.01914154 33.36544601 -321.84626648 33.37520966 -322.69845581 33.38526917 C-323.76972623 33.38225217 -323.76972623 33.38225217 -324.86263847 33.37917423 C-328.31254986 34.38124798 -329.81834597 36.20267926 -332 39 C-332.74973303 42.40181052 -332.74973303 42.40181052 -332.63923645 46.20698547 C-332.65176996 47.27920083 -332.65176996 47.27920083 -332.66455668 48.37307709 C-332.68646309 50.76264503 -332.67288822 53.15067254 -332.65942383 55.5402832 C-332.66787765 57.25529649 -332.67852204 58.97030016 -332.69119263 60.68528748 C-332.71935812 65.33786928 -332.71686399 69.98999036 -332.70889878 74.64263177 C-332.70577562 79.50606109 -332.73080249 84.36934319 -332.75285339 89.23271179 C-332.79032093 98.44072311 -332.80244299 107.64858673 -332.8054778 116.85666674 C-332.81016568 127.34033042 -332.84308035 137.82384586 -332.87837565 148.30744421 C-332.9503432 169.87161261 -332.98683221 191.43572081 -333 213 C-295.46151207 212.96399563 -257.92311146 212.90704857 -220.38470129 212.82207905 C-215.95129208 212.81206179 -211.51788249 212.80221763 -207.08447266 212.79248047 C-206.20187379 212.7905391 -205.31927492 212.78859772 -204.40993063 212.78659752 C-190.12566657 212.75559034 -175.84141856 212.73860045 -161.55712719 212.72680578 C-146.89625224 212.71438757 -132.23546148 212.68687105 -117.57463968 212.64538693 C-108.53069642 212.62027069 -99.4868928 212.60688135 -90.44291417 212.60857043 C-84.23812882 212.60860022 -78.03348554 212.59394257 -71.82875557 212.56783572 C-68.25080707 212.55321184 -64.67314991 212.54496767 -61.0951767 212.55419731 C-57.20988023 212.5640498 -53.32509255 212.54292407 -49.43984985 212.51898193 C-47.75596143 212.53062256 -47.75596143 212.53062256 -46.03805506 212.54249835 C-37.64424074 212.45107176 -30.56017714 210.96681428 -24 205.5 C-20.1766718 200.72083975 -19.70844978 197.1168937 -19.73498535 191.0670166 C-19.73060408 190.26196135 -19.72622281 189.4569061 -19.72170877 188.62745523 C-19.70937555 185.9267107 -19.71119777 183.22616008 -19.71289062 180.52539062 C-19.70686732 178.59042574 -19.6999433 176.65546347 -19.69218445 174.72050476 C-19.6772873 170.55224335 -19.66854422 166.38402992 -19.66447449 162.21574402 C-19.65776818 155.62770789 -19.63602279 149.03977459 -19.61193848 142.45178223 C-19.56294398 128.46787889 -19.53063347 114.4839538 -19.5 100.5 C-19.46693124 85.40435418 -19.43105554 70.30874853 -19.37586927 55.21316481 C-19.35248888 48.66110341 -19.33877176 42.10911348 -19.33237457 35.55701447 C-19.32644627 31.48476089 -19.31235897 27.41256545 -19.29603004 23.34034157 C-19.29014217 21.44888372 -19.28768428 19.55741169 -19.28886986 17.66594505 C-19.29002521 15.08816688 -19.27904319 12.51071704 -19.26501465 9.9329834 C-19.26831362 9.18084643 -19.2716126 8.42870946 -19.27501154 7.65378046 C-19.24182579 3.97035497 -19.1914776 1.04912344 -17 -2 C-14.16582288 -3.88945141 -12.87140477 -4.44444535 -9.625 -4.9375 C-8.87476563 -5.07027344 -8.12453125 -5.20304688 -7.3515625 -5.33984375 C-3.60781883 -4.79880438 -2.31918382 -2.90116913 0 0 Z " fill="#526393" transform="translate(462,237)"/>
<path d="M0 0 C33.99 0 67.98 0 103 0 C103.12375 15.9225 103.2475 31.845 103.375 48.25 C103.45693604 55.79149902 103.45693604 55.79149902 103.54052734 63.48535156 C103.56762695 69.62451172 103.56762695 69.62451172 103.57266235 72.49847412 C103.58187646 74.50587947 103.60298083 76.51325158 103.63345337 78.52044678 C103.67731269 81.56141841 103.68343876 84.60036152 103.68115234 87.64160156 C103.70274099 88.53594028 103.72432964 89.43027901 103.74657249 90.3517189 C103.7227099 92.71914039 103.65629429 94.72442148 103 97 C100.02774048 99.34661865 100.02774048 99.34661865 97 101 C95.87173379 104.54290992 95.87173379 104.54290992 95.4765625 107.1796875 C92.86830575 122.61543644 87.65699533 134.63938651 75.1328125 144.46484375 C73.14519195 145.8215391 71.15548122 146.92987593 69 148 C68.20851563 148.39316406 67.41703125 148.78632813 66.6015625 149.19140625 C54.71597978 154.07845817 39.3943106 153.95017156 27.25 149.9375 C14.40085973 144.45479176 3.83611837 135.36446042 -2.0078125 122.5078125 C-4.20386459 116.95716115 -5.95458729 111.59928584 -6.375 105.625 C-6.66410206 101.86734284 -6.66410206 101.86734284 -9.4375 99.5625 C-11.87078339 98.0296849 -11.87078339 98.0296849 -14 97 C-12.29818276 81.62430377 -10.20406577 66.33621068 -7.84155273 51.05102539 C-6.48400694 42.25955192 -5.19275143 33.46384399 -4.07617188 24.63793945 C-2.99781185 16.35456912 -1.45817757 8.26300624 0 0 Z " fill="#F5FCFE" transform="translate(146,34)"/>
<path d="M0 0 C33.66 0 67.32 0 102 0 C103.76159824 9.39519061 105.51249811 18.75186529 107 28.1875 C107.16878662 29.2492041 107.33757324 30.3109082 107.51147461 31.40478516 C108.72183085 39.07934878 109.85247042 46.76327004 110.92138672 54.45874023 C111.61686686 59.43919853 112.38909574 64.39890986 113.22631836 69.35742188 C114.38944057 76.33757965 115.39218147 83.32308018 116 90.375 C116.07814941 91.07077148 116.15629883 91.76654297 116.23681641 92.48339844 C116.375 94.4609375 116.375 94.4609375 116 98 C114.3766701 99.7089048 112.70923151 101.37701411 111 103 C110.22807868 106.08792161 110.22807868 106.08792161 110.125 109.4375 C108.77765113 121.33908164 102.9767175 132.05417762 94 140 C83.16979143 148.47506798 71.85628418 152.41476565 58.25 152.5 C56.95570068 152.50954712 56.95570068 152.50954712 55.63525391 152.51928711 C45.01685044 152.30943323 36.73813202 148.84108108 28 143 C27.113125 142.4225 26.22625 141.845 25.3125 141.25 C15.46118864 131.6649403 10.73425549 119.64704024 9.75 106.12890625 C8.7863722 102.10877154 7.19501142 100.55879549 4 98 C2.68 97.67 1.36 97.34 0 97 C0 64.99 0 32.98 0 0 Z " fill="#0C8A54" transform="translate(250,34)"/>
<path d="M0 0 C9.47562827 -0.09301515 18.9510974 -0.16392386 28.42708397 -0.20724869 C32.82801917 -0.22805106 37.22864013 -0.25623277 41.62939453 -0.30175781 C45.88288043 -0.34547994 50.13606564 -0.36919228 54.38975906 -0.37950897 C56.00595452 -0.38685336 57.62213503 -0.40119438 59.23820114 -0.42292023 C69.45330763 -0.55468519 78.7026077 -0.49126738 86.875 6.4375 C87.57625 7.283125 88.2775 8.12875 89 9 C89.63550781 9.71542969 90.27101563 10.43085937 90.92578125 11.16796875 C93.39137716 14.53436618 94.83947544 18.00861757 96.3125 21.875 C96.79759033 23.11685059 96.79759033 23.11685059 97.29248047 24.38378906 C98.53850996 27.58532312 99.76871923 30.79276397 101 34 C101.89101297 36.30781001 102.7832297 38.61515296 103.67539978 40.92251587 C114.22081565 68.20381705 114.22081565 68.20381705 119.25 81.69921875 C121.62839154 88.0795527 124.20365652 94.34438243 126.8984375 100.59765625 C129.04507187 107.22786381 127.84417332 112.60726041 125.75 119 C125.54503906 119.67289062 125.34007812 120.34578125 125.12890625 121.0390625 C121.36822632 132.84531829 113.96207518 142.13737118 103 148 C91.89881612 153.65598293 76.80531248 154.13042988 64.78515625 151.08203125 C57.83633454 148.75066762 51.75752856 145.51899044 46 141 C45.31421875 140.48824219 44.6284375 139.97648438 43.921875 139.44921875 C33.15097324 130.83660837 28.19479859 118.69895328 26.53515625 105.2265625 C26.28124243 101.87005391 26.28124243 101.87005391 23.8125 99.625 C20.79081505 97.87913759 18.45419117 97.32132011 15 97 C12.84313955 91.49213748 12.24416751 86.01566144 11.5625 80.1875 C10.70583631 73.23420994 9.78623745 66.32493118 8.5 59.4375 C7.16905656 52.26040476 6.15565925 45.06279961 5.2019043 37.82666016 C4.02733359 28.99321335 2.66574185 20.19180028 1.26977539 11.39086914 C1.10469482 10.34020264 0.93961426 9.28953613 0.76953125 8.20703125 C0.62104736 7.2735083 0.47256348 6.33998535 0.31958008 5.37817383 C0 3 0 3 0 0 Z " fill="#F5FBFE" transform="translate(352,34)"/>
<path d="M0 0 C1.28095047 0.00007553 2.56190094 0.00015106 3.88166809 0.00022888 C5.26966389 0.00533474 6.65765929 0.01055072 8.0456543 0.01586914 C9.47340343 0.01773564 10.9011532 0.01915845 12.3289032 0.02015686 C16.0755085 0.02396375 19.82207465 0.03377832 23.56866455 0.04486084 C27.39627554 0.05511437 31.22389289 0.05966291 35.05151367 0.06469727 C42.55348459 0.07540232 50.05542332 0.09245666 57.55737305 0.11352539 C57.40638737 2.19929573 57.25271379 4.28487161 57.09790039 6.37036133 C56.96996597 8.11249908 56.96996597 8.11249908 56.83944702 9.88983154 C56.52763346 13.45340542 55.93836043 16.86809984 55.18237305 20.36352539 C53.75406618 27.36609884 52.86676638 34.39007125 52.05737305 41.48852539 C51.14056771 49.50728494 50.08726567 57.45614729 48.68676758 65.40429688 C47.43964862 72.55679449 46.48766309 79.74425691 45.55932617 86.94433594 C45.44266602 87.83419189 45.32600586 88.72404785 45.20581055 89.64086914 C45.05378174 90.82797485 45.05378174 90.82797485 44.89868164 92.0390625 C44.55737305 94.11352539 44.55737305 94.11352539 43.55737305 97.11352539 C42.44362305 97.40227539 41.32987305 97.69102539 40.18237305 97.98852539 C36.49492665 98.74537828 36.49492665 98.74537828 34.88549805 101.33618164 C33.49333222 104.24744606 33.03862704 106.48277309 32.68237305 109.67602539 C30.34233835 124.7296344 22.5825507 135.11861579 10.55737305 144.11352539 C-2.89674783 152.89726673 -19.69759351 154.00283917 -35.25512695 151.50024414 C-46.83497802 148.34083766 -56.09967126 141.2760811 -62.44262695 131.11352539 C-66.75288969 123.1520615 -69.21759891 113.95520738 -66.88208008 104.95288086 C-66.09491803 102.78413813 -65.23021444 100.66998825 -64.31762695 98.55102539 C-63.6656293 96.95896865 -63.01460437 95.36651323 -62.36450195 93.77368164 C-62.03772461 92.98622559 -61.71094727 92.19876953 -61.37426758 91.38745117 C-60.03263576 88.11282886 -58.79924016 84.80626995 -57.56762695 81.48852539 C-57.08096007 80.1824194 -56.59396697 78.87643493 -56.10668945 77.57055664 C-55.84662109 76.87269043 -55.58655273 76.17482422 -55.31860352 75.45581055 C-54.31052199 72.7602882 -53.29480275 70.06770174 -52.27856445 67.37524414 C-51.499635 65.30894478 -50.72099452 63.24253647 -49.94262695 61.17602539 C-49.55365234 60.1433252 -49.16467773 59.110625 -48.76391602 58.04663086 C-46.78942518 52.78215508 -44.8610673 47.50855715 -43.03320312 42.19140625 C-32.50397005 11.61675503 -32.50397005 11.61675503 -17.19262695 3.61352539 C-11.34467561 0.82878665 -6.4607406 -0.01274308 0 0 Z " fill="#0C8B54" transform="translate(88.442626953125,33.886474609375)"/>
<path d="M0 0 C0.76860352 -0.00525696 1.53720703 -0.01051392 2.32910156 -0.01593018 C4.84461392 -0.02902657 7.35948233 -0.02042936 9.875 -0.01025391 C11.63802206 -0.01227763 13.40104329 -0.01519154 15.1640625 -0.01895142 C18.84903985 -0.02336073 22.53379822 -0.01698875 26.21875 -0.00292969 C30.92612136 0.01416139 35.63297947 0.00431272 40.34033203 -0.01364708 C43.97790344 -0.02452266 47.61535452 -0.02102131 51.25292969 -0.0132637 C52.98795636 -0.01127212 54.72299419 -0.0136841 56.45800781 -0.02070236 C58.88896342 -0.02837937 61.31910456 -0.01662641 63.75 0 C64.81009277 -0.00910904 64.81009277 -0.00910904 65.89160156 -0.0184021 C74.18215397 0.08587533 80.19887348 3.04046551 86.1796875 8.62255859 C91.65164561 14.32146427 91.99304504 19.96407886 92.05200195 27.59008789 C92.05857315 28.29651932 92.06514435 29.00295074 92.07191467 29.73078918 C92.09154928 32.05799486 92.10328931 34.38513625 92.11328125 36.71240234 C92.11735678 37.51174509 92.1214323 38.31108784 92.12563133 39.13465309 C92.146452 43.36719118 92.16076995 47.59969726 92.17016602 51.83227539 C92.1812113 56.18199039 92.21560066 60.53119117 92.25533772 64.88072491 C92.28160618 68.24470405 92.28986695 71.60856261 92.29344749 74.97263527 C92.29828847 76.57486245 92.30983063 78.17708515 92.32848549 79.77921104 C92.44058369 90.04596761 91.67456925 98.28173301 86.125 107.20068359 C78.7416277 114.37896221 70.46738194 116.62600734 60.31665039 116.6628418 C59.25393669 116.67050819 59.25393669 116.67050819 58.16975403 116.67832947 C55.85396612 116.6921016 53.53847995 116.69127829 51.22265625 116.68896484 C49.59655143 116.6928583 47.97044762 116.6971943 46.34434509 116.70195007 C42.9460825 116.70938547 39.54792385 116.70914035 36.1496582 116.70385742 C31.81456976 116.69806334 27.47990864 116.7150052 23.14489079 116.7382021 C19.78952078 116.75299771 16.43425236 116.7538033 13.07885551 116.75069237 C11.48141063 116.75120255 9.88395961 116.75638291 8.28654671 116.76650429 C-12.00034482 116.87929645 -12.00034482 116.87929645 -19.9375 109.82568359 C-20.99904297 108.9265625 -20.99904297 108.9265625 -22.08203125 108.00927734 C-29.10127381 99.00370993 -28.73264915 88.75373166 -28.69140625 77.88427734 C-28.6966514 76.1937679 -28.70293111 74.50326139 -28.71018982 72.8127594 C-28.72054909 69.28510679 -28.71609586 65.75785872 -28.70141602 62.23022461 C-28.68420926 57.72897907 -28.7077695 53.22900788 -28.74290562 48.72790432 C-28.7649511 45.24208764 -28.76342139 41.75657279 -28.7551403 38.27070808 C-28.75432518 36.61185366 -28.76110385 34.95297608 -28.77591133 33.29418755 C-28.85154008 23.2930693 -28.60518494 15.20022496 -21.39894104 7.55760193 C-15.39029741 1.70811924 -8.20135291 -0.07047161 0 0 Z " fill="#546596" transform="translate(314.125,250.61181640625)"/>
<path d="M0 0 C2.91415084 2.82584324 5.62748352 5.71316234 8.25 8.8125 C19.84877449 21.99404969 35.37613944 30.95613418 53 33 C56.12640041 33.15727478 59.24504529 33.18500004 62.375 33.1875 C63.57382812 33.20586914 63.57382812 33.20586914 64.796875 33.22460938 C70.44921981 33.23832866 75.54516198 32.45449238 81 31 C82.02867187 30.72800781 83.05734375 30.45601562 84.1171875 30.17578125 C100.00823654 25.20138771 110.78584903 15.55166352 120 2 C122.51827616 4.42203631 124.62341106 6.78798456 126.5625 9.6875 C135.32012726 21.43713457 150.33736925 30.29047236 164.80078125 32.609375 C187.76317543 35.07294067 207.66193547 30.30561055 226 16 C231.01278213 11.69870953 234.80622247 7.26141369 237.9921875 1.46875 C238.32476562 0.9840625 238.65734375 0.499375 239 0 C239.66 0 240.32 0 241 0 C242.26171875 1.72265625 242.26171875 1.72265625 243.6875 4.0625 C249.05778843 12.33145014 255.79529543 17.64209964 264 23 C265.051875 23.70125 266.10375 24.4025 267.1875 25.125 C278.04607813 31.14018357 290.16765979 33.17981276 302.375 33.1875 C303.39078125 33.19974609 304.4065625 33.21199219 305.453125 33.22460938 C311.07903938 33.23556895 315.66682007 32.75873891 321 31 C323.4375 31.375 323.4375 31.375 325 32 C324.34 32.33 323.68 32.66 323 33 C322.67 39.6 322.34 46.2 322 53 C306.66529755 58.33380955 290.19925564 59.80443497 275 53 C258.29695605 44.89009438 248.47432947 33.34955715 241.9453125 16.140625 C240.92999365 12.76741692 240.41263342 9.49421489 240 6 C239.78085937 6.94359375 239.56171875 7.8871875 239.3359375 8.859375 C235.04241093 26.5739414 226.78875828 40.99545439 211 51 C196.62222318 58.27696354 178.91390279 60.75401205 163.0625 56.9375 C148.00658718 51.84817736 134.76545844 42.02450281 127 28 C125.43572125 24.39428829 124.16800553 20.75053033 123 17 C122.38125 15.1746875 122.38125 15.1746875 121.75 13.3125 C121.5025 12.549375 121.255 11.78625 121 11 C119.22572752 13.66140873 118.18530171 16.05796426 117.09838867 19.03881836 C111.52880206 34.13854474 102.41153547 45.00081725 88.0625 52.375 C87.41861328 52.70910889 86.77472656 53.04321777 86.11132812 53.38745117 C73.15339409 59.68644689 55.56145608 60.29394235 41.8125 56.375 C36.08360239 54.26357639 30.99222528 51.50104111 26 48 C25.1440625 47.401875 24.288125 46.80375 23.40625 46.1875 C12.9992055 38.41356314 4.34894688 26.01370573 2 13 C1.87794671 10.32459184 1.95532687 7.68038762 2 5 C1.34 5 0.68 5 0 5 C-0.01417969 5.65484375 -0.02835937 6.3096875 -0.04296875 6.984375 C-0.87675652 22.9390166 -9.45813176 35.16204007 -20.90625 45.765625 C-33.72732156 56.08767414 -48.9321152 59.24870419 -65 58 C-66.65 57.34 -68.3 56.68 -70 56 C-70 48.74 -70 41.48 -70 34 C-67.545625 33.9175 -65.09125 33.835 -62.5625 33.75 C-50.38739831 33.14284893 -37.79118995 30.90500568 -27 25 C-26.21753906 24.59265625 -25.43507812 24.1853125 -24.62890625 23.765625 C-14.32649379 18.04384835 -5.86650903 10.2478259 0 0 Z " fill="#BFBFBF" transform="translate(130,171)"/>
<path d="M0 0 C0.33 0 0.66 0 1 0 C1 44.55 1 89.1 1 135 C13.52839844 134.95359375 26.05679688 134.9071875 38.96484375 134.859375 C46.89909184 134.83893829 54.83332086 134.81951701 62.76757812 134.8046875 C75.36277789 134.78095738 87.95787058 134.75306756 100.55297852 134.69824219 C109.72613197 134.65833136 118.89919852 134.63255695 128.07243639 134.62364602 C132.92811472 134.61843848 137.78354446 134.60622815 142.63914299 134.57707977 C147.21344695 134.54984361 151.78740091 134.54157155 156.36177826 134.54756927 C158.03668942 134.5464727 159.71161281 134.53856773 161.38645363 134.5231781 C170.08450215 134.44720333 177.23691408 134.54040263 185 139 C185.13615919 142.00155373 185.2346398 144.996821 185.3125 148 C185.35439453 148.83917969 185.39628906 149.67835938 185.43945312 150.54296875 C185.56205278 156.8691107 184.19313707 161.18041836 180 166 C172.39860154 171.96472305 164.27360528 172.28792852 155.04116821 172.24050903 C153.82731017 172.24221788 152.61345212 172.24392673 151.36281049 172.24568737 C148.00141348 172.24840917 144.64025005 172.24216965 141.27888131 172.23213124 C137.65114112 172.22348613 134.023408 172.22641766 130.3956604 172.22793579 C124.11296509 172.22898397 117.83031135 172.22271437 111.5476265 172.21146011 C102.46394951 172.195199 93.38029261 172.18999648 84.29660265 172.18748413 C69.55856355 172.18310799 54.8205466 172.16980107 40.08251953 172.15087891 C25.76676545 172.13251802 11.45101739 172.11836253 -2.86474609 172.10986328 C-3.74732044 172.10933783 -4.62989479 172.10881239 -5.53921382 172.10827102 C-9.96687507 172.10566092 -14.39453636 172.10313351 -18.82219768 172.10064721 C-55.54814742 172.07991723 -92.27407199 172.04469389 -129 172 C-129 171.67 -129 171.34 -129 171 C-89.4 171 -49.8 171 -9 171 C-9.33 162.09 -9.66 153.18 -10 144 C-6.535 143.01 -6.535 143.01 -3 142 C-0.72620505 138.58930757 -0.74320669 137.3693694 -0.7215271 133.36225891 C-0.71036362 132.1885675 -0.69920013 131.0148761 -0.68769836 129.80561829 C-0.68445808 127.87216805 -0.68445808 127.87216805 -0.68115234 125.8996582 C-0.67185504 124.52976895 -0.66168666 123.15988538 -0.65071106 121.79000854 C-0.62337459 118.06924253 -0.60825091 114.34851445 -0.59528303 110.62767434 C-0.5796684 106.7398723 -0.55287289 102.85214791 -0.5272522 98.96440125 C-0.48043481 91.60155072 -0.44370506 84.23868563 -0.41057932 76.87576216 C-0.37237882 68.49370016 -0.32296326 60.1117161 -0.27259517 51.72971976 C-0.1692313 34.48653618 -0.07998542 17.24330753 0 0 Z " fill="#EEEAE2" transform="translate(258,278)"/>
<path d="M0 0 C0.73528427 -0.00686325 1.47056854 -0.0137265 2.22813416 -0.02079773 C4.66017943 -0.03910808 7.09158219 -0.03522229 9.52368164 -0.02954102 C11.21375235 -0.03410097 12.90382119 -0.03940598 14.59388733 -0.04542542 C18.13721241 -0.05436494 21.68031222 -0.05192411 25.22363281 -0.04199219 C29.76462865 -0.03050423 34.30484669 -0.05070656 38.84574032 -0.07990932 C42.33648113 -0.09825573 45.82703504 -0.09798197 49.31781197 -0.0922718 C50.99196018 -0.09211838 52.66612089 -0.09818003 54.34022331 -0.11056328 C56.68173873 -0.12544184 59.02181101 -0.11482084 61.36328125 -0.09765625 C62.05484314 -0.10732422 62.74640503 -0.11699219 63.45892334 -0.12695312 C66.63434947 -0.0782087 68.51533525 0.24972026 71.17642212 2.02758789 C73.24454445 5.15821446 73.24751369 7.18696511 73.24804688 10.92919922 C73.25615135 11.89826202 73.25615135 11.89826202 73.26441956 12.88690186 C73.27689932 15.01678672 73.2604214 17.14531749 73.24243164 19.27514648 C73.24258667 20.75960867 73.24407627 22.24407126 73.24684143 23.72853088 C73.24822514 26.83808307 73.23567439 29.94717387 73.21289062 33.05664062 C73.18453028 37.03583045 73.1872367 41.01425238 73.19998074 44.9934988 C73.20694814 48.05880755 73.19913622 51.12393993 73.18672371 54.18922615 C73.18221773 55.65598943 73.18186494 57.12277171 73.18578911 58.58953667 C73.18871126 60.64325379 73.17214795 62.69592681 73.15039062 64.74951172 C73.14498764 65.91659164 73.13958466 67.08367157 73.13401794 68.28611755 C72.70157245 71.76408088 71.84220781 73.61868534 69.74633789 76.40405273 C66.05106864 78.86756557 64.18027403 78.66826241 59.76806641 78.69458008 C58.70903107 78.70465591 58.70903107 78.70465591 57.62860107 78.7149353 C55.29407724 78.73393744 52.9598405 78.73784044 50.62524414 78.73999023 C49.00243511 78.74641621 47.37962725 78.75314442 45.75682068 78.76016235 C42.35478021 78.77214034 38.95284132 78.7758426 35.55078125 78.7746582 C31.19141278 78.77445488 26.83269529 78.80176752 22.47348118 78.83620262 C19.12172961 78.85843892 15.77013558 78.86249677 12.41831779 78.86143875 C10.81114392 78.86379925 9.20396599 78.87264802 7.5968647 78.88810349 C5.34878033 78.90770022 3.10211105 78.901952 0.85400391 78.88989258 C-0.42490219 78.89274261 -1.70380829 78.89559265 -3.02146912 78.89852905 C-6.25366211 78.40405273 -6.25366211 78.40405273 -8.66653442 76.80644226 C-10.81046316 73.56123899 -10.75485274 71.35863925 -10.75537109 67.47998047 C-10.76077408 66.79171173 -10.76617706 66.10344299 -10.77174377 65.39431763 C-10.78422591 63.12498646 -10.767747 60.85692521 -10.74975586 58.58764648 C-10.74991084 57.00871209 -10.75139973 55.42977731 -10.75416565 53.85084534 C-10.75554934 50.54459785 -10.74299575 47.23878434 -10.72021484 43.93261719 C-10.69180661 39.69317257 -10.69457403 35.45444769 -10.70730495 31.21494961 C-10.71425654 27.95585472 -10.70647929 24.69692647 -10.69404793 21.43785286 C-10.68952997 19.8745392 -10.68919964 18.31120767 -10.69311333 16.74789238 C-10.69602115 14.5644646 -10.67954178 12.38203247 -10.65771484 10.19873047 C-10.65231186 8.95614975 -10.64690887 7.71356903 -10.64134216 6.43333435 C-10.25366211 3.40405273 -10.25366211 3.40405273 -9.1817627 1.50463867 C-6.23345873 -0.17829318 -3.30367954 -0.02144219 0 0 Z " fill="#F8F6FB" transform="translate(315.253662109375,269.595947265625)"/>
<path d="M0 0 C38.28 0 76.56 0 116 0 C116 1.32 116 2.64 116 4 C115.05125 4.556875 114.1025 5.11375 113.125 5.6875 C109.53182588 8.34644885 109.19889515 9.88818177 108.4765625 14.1796875 C105.86830575 29.61543644 100.65699533 41.63938651 88.1328125 51.46484375 C86.14519195 52.8215391 84.15548122 53.92987593 82 55 C81.20851563 55.39316406 80.41703125 55.78632813 79.6015625 56.19140625 C67.71597978 61.07845817 52.3943106 60.95017156 40.25 56.9375 C27.40085973 51.45479176 16.83611837 42.36446042 10.9921875 29.5078125 C8.79613541 23.95716115 7.04541271 18.59928584 6.625 12.625 C6.33589794 8.86734284 6.33589794 8.86734284 3.5625 6.5625 C1.12921661 5.0296849 1.12921661 5.0296849 -1 4 C-0.67 2.68 -0.34 1.36 0 0 Z " fill="#E2FBEF" transform="translate(133,127)"/>
<path d="M0 0 C38.28 0 76.56 0 116 0 C116 1.65 116 3.3 116 5 C115.19304687 5.79535156 114.38609375 6.59070313 113.5546875 7.41015625 C110.42879709 10.5790635 110.37735928 12.07168445 110.125 16.4375 C108.77765113 28.33908164 102.9767175 39.05417762 94 47 C83.16979143 55.47506798 71.85628418 59.41476565 58.25 59.5 C57.38713379 59.50636475 56.52426758 59.51272949 55.63525391 59.51928711 C45.01685044 59.30943323 36.73813202 55.84108108 28 50 C26.6696875 49.13375 26.6696875 49.13375 25.3125 48.25 C15.46118864 38.6649403 10.73425549 26.64704024 9.75 13.12890625 C8.79524702 9.14579616 7.11454753 7.58210597 4 5 C1.82653432 4.13880866 1.82653432 4.13880866 0 4 C0 2.68 0 1.36 0 0 Z " fill="#008841" transform="translate(250,127)"/>
<path d="M0 0 C1.00520187 -0.00043808 2.01040375 -0.00087616 3.04606628 -0.00132751 C6.36847356 0.00076244 9.69037619 0.02410375 13.01269531 0.04760742 C15.31626103 0.05320263 17.61983032 0.05747308 19.92340088 0.06047058 C25.98648941 0.07192522 32.04936237 0.10139799 38.11236572 0.13458252 C44.29916467 0.1652699 50.48599845 0.17897309 56.67285156 0.1940918 C68.8122692 0.22626688 80.95152683 0.27747093 93.09082031 0.34057617 C93.09082031 1.66057617 93.09082031 2.98057617 93.09082031 4.34057617 C91.99769531 4.56745117 90.90457031 4.79432617 89.77832031 5.02807617 C85.4786905 6.55845289 85.00095491 7.35126853 83.09082031 11.34057617 C82.48972454 14.04838452 82.48972454 14.04838452 82.21582031 16.90307617 C79.87578562 31.95668518 72.11599796 42.34566657 60.09082031 51.34057617 C46.63669943 60.12431751 29.83585375 61.22988995 14.27832031 58.72729492 C2.69846925 55.56788844 -6.566224 48.50313188 -12.90917969 38.34057617 C-15.52452201 33.50979097 -17.44935002 28.85853215 -17.90917969 23.34057617 C-17.97234375 22.68702148 -18.03550781 22.0334668 -18.10058594 21.36010742 C-18.45354586 14.92712823 -16.93299782 9.03356709 -13.90917969 3.34057617 C-10.13921067 -0.86290697 -5.21800475 -0.059321 0 0 Z " fill="#008A47" transform="translate(38.9091796875,126.659423828125)"/>
<path d="M0 0 C1.60974797 2.41462195 2.89356464 4.64118139 4.125 7.25 C4.47820312 7.97703125 4.83140625 8.7040625 5.1953125 9.453125 C7.14368379 15.6198147 5.68768918 21.08494882 3.75 27 C3.54503906 27.67289063 3.34007812 28.34578125 3.12890625 29.0390625 C-0.63177368 40.84531829 -8.03792482 50.13737118 -19 56 C-30.10118388 61.65598293 -45.19468752 62.13042988 -57.21484375 59.08203125 C-64.16366546 56.75066762 -70.24247144 53.51899044 -76 49 C-76.68578125 48.48824219 -77.3715625 47.97648437 -78.078125 47.44921875 C-88.84902676 38.83660837 -93.80520141 26.69895328 -95.46484375 13.2265625 C-95.71875757 9.87005391 -95.71875757 9.87005391 -98.1875 7.625 C-101.20918495 5.87913759 -103.54580883 5.32132011 -107 5 C-107.33 3.68 -107.66 2.36 -108 1 C-93.9532973 0.79948536 -79.90646088 0.61636235 -65.8592701 0.45341206 C-59.33719625 0.37724314 -52.81529293 0.29543824 -46.29345703 0.20092773 C-40.00421823 0.10999234 -33.71495856 0.0336332 -27.42541122 -0.03244972 C-25.02107982 -0.06030654 -22.61680428 -0.09349237 -20.21261978 -0.13199425 C-16.85544074 -0.184864 -13.49856585 -0.21909629 -10.14111328 -0.2487793 C-9.13842407 -0.26891586 -8.13573486 -0.28905243 -7.10266113 -0.30979919 C-6.19118317 -0.31408936 -5.2797052 -0.31837952 -4.34060669 -0.32279968 C-3.54602114 -0.33293941 -2.75143559 -0.34307913 -1.93277168 -0.35352612 C-0.9760497 -0.17853069 -0.9760497 -0.17853069 0 0 Z " fill="#E2FCEF" transform="translate(474,126)"/>
<path d="M0 0 C1.28095047 0.00007553 2.56190094 0.00015106 3.88166809 0.00022888 C5.26966389 0.00533474 6.65765929 0.01055072 8.0456543 0.01586914 C9.47340343 0.01773564 10.9011532 0.01915845 12.3289032 0.02015686 C16.0755085 0.02396375 19.82207465 0.03377832 23.56866455 0.04486084 C27.39627554 0.05511437 31.22389289 0.05966291 35.05151367 0.06469727 C42.55348459 0.07540232 50.05542332 0.09245666 57.55737305 0.11352539 C57.40805364 2.18832321 57.25579195 4.26290941 57.10229492 6.33740234 C56.97558411 8.07036308 56.97558411 8.07036308 56.84631348 9.83833313 C56.50091509 13.75348658 55.85487484 17.45307923 55.05737305 21.30102539 C53.83581882 27.23167115 53.08097839 33.08051383 52.55737305 39.11352539 C51.82663574 39.10828857 51.09589844 39.10305176 50.34301758 39.09765625 C41.0806344 39.04099462 31.81963289 39.04956879 22.55737305 39.11352539 C21.79869934 39.11870178 21.04002563 39.12387817 20.25836182 39.12921143 C15.66139026 39.16498411 11.0658201 39.22803099 6.46966553 39.322052 C4.99927518 39.34946223 3.52874629 39.37031147 2.0581665 39.38424683 C-6.22384098 39.46944197 -13.11686962 39.95546527 -20.44262695 44.11352539 C-21.92762695 44.73227539 -21.92762695 44.73227539 -23.44262695 45.36352539 C-37.63635381 53.64319939 -44.35856027 68.31188075 -49.5402832 83.28540039 C-52.57600805 91.44574112 -52.57600805 91.44574112 -55.24731445 93.50415039 C-57.13012695 94.30102539 -57.13012695 94.30102539 -60.44262695 95.11352539 C-61.43262695 95.60852539 -61.43262695 95.60852539 -62.44262695 96.11352539 C-61.8164477 92.57771041 -60.89259722 89.36451774 -59.62231445 86.00805664 C-59.25533447 85.03360596 -58.88835449 84.05915527 -58.51025391 83.05517578 C-57.91990356 81.50624634 -57.91990356 81.50624634 -57.31762695 79.92602539 C-56.91310303 78.85537842 -56.5085791 77.78473145 -56.09179688 76.68164062 C-53.40964646 69.60023503 -50.6702519 62.54231755 -47.8972168 55.49609375 C-46.23213789 51.23675813 -44.66832975 46.95518902 -43.18041992 42.63085938 C-32.4985811 11.61393823 -32.4985811 11.61393823 -17.19262695 3.61352539 C-11.34467561 0.82878665 -6.4607406 -0.01274308 0 0 Z " fill="#1D8A5E" transform="translate(88.442626953125,33.886474609375)"/>
<path d="M0 0 C33.66 0 67.32 0 102 0 C105.63829787 19.40425532 105.63829787 19.40425532 106.75 26.25 C106.88792969 27.05050781 107.02585937 27.85101563 107.16796875 28.67578125 C107.29300781 29.44792969 107.41804688 30.22007813 107.546875 31.015625 C107.65870117 31.68883789 107.77052734 32.36205078 107.88574219 33.05566406 C108.01363276 35.23199003 107.62680094 36.9226357 107 39 C106.34 38.34 105.68 37.68 105 37 C105 36.01 105 35.02 105 34 C104.410979 34.00523682 103.82195801 34.01047363 103.21508789 34.01586914 C100.49756983 34.03689803 97.78006899 34.04974146 95.0625 34.0625 C93.67321289 34.07506836 93.67321289 34.07506836 92.25585938 34.08789062 C87.0765685 34.10606358 82.07854544 33.84067082 76.94116211 33.19799805 C74.48568241 32.94753974 72.19780435 33.08284271 69.75 33.375 C68.33654297 33.52388672 68.33654297 33.52388672 66.89453125 33.67578125 C65.93933594 33.78277344 64.98414063 33.88976562 64 34 C54.08536922 35.08554352 44.25382089 35.07122437 34.28881836 34.96313477 C33.20737549 34.95467529 32.12593262 34.94621582 31.01171875 34.9375 C29.56478638 34.92009766 29.56478638 34.92009766 28.08862305 34.90234375 C24.37620531 35.01972317 20.68559085 35.53930114 17 36 C11.39 36 5.78 36 0 36 C0 24.12 0 12.24 0 0 Z " fill="#258962" transform="translate(250,34)"/>
<path d="M0 0 C5.07375 0.103125 10.1475 0.20625 15.375 0.3125 C15.375 12.5225 15.375 24.7325 15.375 37.3125 C7.516875 37.4671875 7.516875 37.4671875 -0.5 37.625 C-2.13179199 37.67052002 -3.76358398 37.71604004 -5.44482422 37.76293945 C-13.78812743 37.84217067 -20.69026872 37.47788726 -27.625 32.3125 C-31.12410896 28.82551966 -33.1332391 24.78778269 -34.6875 20.125 C-34.57071433 14.86964478 -31.67666331 10.60900987 -28.22387695 6.75634766 C-19.93934354 -0.72490606 -10.51405853 -0.30299108 0 0 Z " fill="#E9E2D8" transform="translate(94.625,412.6875)"/>
<path d="M0 0 C3 2.4375 3 2.4375 5 5 C5.33 5.33 5.66 5.66 6 6 C6.13838147 8.74147998 6.21317711 11.45591937 6.23828125 14.19921875 C6.246353 15.02702347 6.25442474 15.85482819 6.26274109 16.7077179 C6.27660162 18.46552424 6.28731492 20.22335772 6.29516602 21.98120117 C6.31231886 24.65921923 6.35617826 27.33598356 6.40039062 30.01367188 C6.4105226 31.72134508 6.41903712 33.4290288 6.42578125 35.13671875 C6.44328934 35.9338176 6.46079742 36.73091644 6.47883606 37.5521698 C6.45448107 43.85499749 4.44485312 47.30223104 0.1875 52 C-2 53 -2 53 -5.5625 52.375 C-10.22093023 50.51162791 -10.22093023 50.51162791 -12 48 C-12 47.34 -12 46.68 -12 46 C-12.66 45.67 -13.32 45.34 -14 45 C-15.79728918 39.60813245 -15.26556358 33.76203778 -15.29516602 28.11401367 C-15.3066553 26.58852846 -15.32705882 25.06308248 -15.35668945 23.5378418 C-15.6647364 7.67256357 -15.6647364 7.67256357 -11 1 C-7.53003768 -0.73498116 -3.78492805 -0.60794181 0 0 Z " fill="#576794" transform="translate(54,251)"/>
<path d="M0 0 C2.82632151 2.03070547 4.70026795 3.62043319 5.45999146 7.1171875 C5.64598721 9.73698429 5.66671302 12.31132919 5.62890625 14.9375 C5.63131821 15.89519287 5.63373016 16.85288574 5.63621521 17.83959961 C5.63523766 19.86023101 5.62186601 21.88088949 5.59692383 23.90136719 C5.56261265 26.98986009 5.57627041 30.07549116 5.59570312 33.1640625 C5.58880443 35.13022048 5.57913184 37.0963711 5.56640625 39.0625 C5.57136612 39.98345459 5.57632599 40.90440918 5.58143616 41.85327148 C5.5038274 46.08940194 5.37194305 48.40334333 3.08740234 52.06811523 C0.32218697 54.62731398 -1.38161315 54.95219459 -5.03125 55.2109375 C-8.22582498 54.86866161 -9.85616798 53.27376123 -12 51 C-13.14714353 48.70571295 -13.14403474 47.3655359 -13.17700195 44.81323242 C-13.18983719 43.94860886 -13.20267242 43.08398529 -13.21589661 42.19316101 C-13.22328354 41.25672256 -13.23067047 40.32028412 -13.23828125 39.35546875 C-13.246353 38.39353104 -13.25442474 37.43159332 -13.26274109 36.44050598 C-13.2765861 34.40200607 -13.28730638 32.36348294 -13.29516602 30.32495117 C-13.31237389 27.21032664 -13.35625577 24.09676482 -13.40039062 20.98242188 C-13.41051791 19.00261198 -13.4190339 17.02279305 -13.42578125 15.04296875 C-13.44328934 14.112603 -13.46079742 13.18223724 -13.47883606 12.22367859 C-13.46454163 7.95289277 -13.39386696 5.63486965 -11.09838867 1.93481445 C-7.27213843 -1.59317079 -5.01605235 -1.19024971 0 0 Z " fill="#3B5294" transform="translate(156,335)"/>
<path d="M0 0 C0 5.61 0 11.22 0 17 C-1.32 16.34 -2.64 15.68 -4 15 C-6.35564596 14.55188863 -6.35564596 14.55188863 -8.75 14.375 C-9.54921875 14.30023438 -10.3484375 14.22546875 -11.171875 14.1484375 C-11.77515625 14.09945313 -12.3784375 14.05046875 -13 14 C-11.6640625 12.4765625 -11.6640625 12.4765625 -10 11 C-7.375 11.375 -7.375 11.375 -5 12 C-4.67 11.67 -4.34 11.34 -4 11 C-4.04125 9.72125 -4.0825 8.4425 -4.125 7.125 C-4.18732853 3.260631 -4.18732853 3.260631 -2.5625 1 C-1 0 -1 0 0 0 Z " fill="#E6E9F1" transform="translate(59,298)"/>
<path d="M0 0 C0.33 0 0.66 0 1 0 C1.33 7.92 1.66 15.84 2 24 C-1.36103262 19.51862317 -1.19743585 18.33076793 -1 13 C-1.33 12.34 -1.66 11.68 -2 11 C-2.28143104 6.77853434 -1.80098121 3.82708507 0 0 Z " fill="#B0B7CD" transform="translate(2,135)"/>
<path d="M0 0 C0.66 0 1.32 0 2 0 C0.41332422 3.90285767 -2.13350481 6.33520982 -5.125 9.25 C-6.03507812 10.14203125 -6.94515625 11.0340625 -7.8828125 11.953125 C-8.58148438 12.62859375 -9.28015625 13.3040625 -10 14 C-10.66 13.67 -11.32 13.34 -12 13 C-10.56652501 9.61042892 -8.81218308 7.7219322 -6 5.375 C-3.92339664 3.6266832 -1.92037235 1.92037235 0 0 Z " fill="#838DAD" transform="translate(53,25)"/>
<path d="M0 0 C1.22589844 0.01353516 1.22589844 0.01353516 2.4765625 0.02734375 C3.41628906 0.04474609 3.41628906 0.04474609 4.375 0.0625 C4.375 0.3925 4.375 0.7225 4.375 1.0625 C3.281875 1.165625 2.18875 1.26875 1.0625 1.375 C-2.61036808 2.05977202 -3.37737686 2.34169304 -5.625 5.0625 C-6.285 5.0625 -6.945 5.0625 -7.625 5.0625 C-7.25 3.125 -7.25 3.125 -6.625 1.0625 C-4.21954362 -0.14022819 -2.67503047 -0.03821472 0 0 Z " fill="#7A85B4" transform="translate(49.625,250.9375)"/>
<path d="M0 0 C-0.33 2.64 -0.66 5.28 -1 8 C-1.33 7.01 -1.66 6.02 -2 5 C-4.01508358 4.26676204 -4.01508358 4.26676204 -6 4 C-1.125 0 -1.125 0 0 0 Z " fill="#CACAC9" transform="translate(250,177)"/>
</svg>
